<svg width="100" height="100" viewBox="0 0 100 100" fill="none" xmlns="http://www.w3.org/2000/svg">
    <g clip-path="url(#clip0_34_2)">
        <path
            d="M55.01 71.26C53.69 71.26 52.6267 70.8933 51.82 70.16C51.0133 69.3533 50.6467 68.07 50.72 66.31C51.0133 61.69 52.1133 57.5833 54.02 53.99C55.9267 50.3967 59.1167 46.3633 63.59 41.89C67.77 37.7833 70.7767 34.3 72.61 31.44C74.4433 28.58 75.36 25.61 75.36 22.53C75.36 17.47 72.5367 14.94 66.89 14.94C63.5167 14.94 60.95 15.71 59.19 17.25C57.43 18.7167 56.55 20.5867 56.55 22.86L56.66 27.37C56.66 28.6167 56.1833 29.7167 55.23 30.67C54.35 31.55 52.92 31.99 50.94 31.99C48.6667 31.99 46.9067 31.33 45.66 30.01C44.4867 28.6167 43.9 26.6733 43.9 24.18C43.9 20.5133 44.78 17.1767 46.54 14.17C48.3733 11.09 51.1233 8.63333 54.79 6.79999C58.4567 4.96666 62.9667 4.05 68.32 4.05C75.58 4.05 81.19 5.62666 85.15 8.77999C89.1833 11.86 91.2 16.3333 91.2 22.2C91.2 26.82 90.0267 31 87.68 34.74C85.3333 38.48 81.8133 42.3667 77.12 46.4C73.16 49.7733 70.1533 52.5233 68.1 54.65C66.0467 56.7767 64.5433 58.6467 63.59 60.26C62.71 61.8 61.9767 63.5967 61.39 65.65C60.8767 67.5567 60.0333 68.9867 58.86 69.94C57.76 70.82 56.4767 71.26 55.01 71.26ZM50.83 97.55C47.6033 97.55 45.1467 96.67 43.46 94.91C41.8467 93.15 41.04 90.84 41.04 87.98C41.04 84.68 41.9567 82.04 43.79 80.06C45.6967 78.08 48.3367 77.09 51.71 77.09C54.9367 77.09 57.3567 77.8967 58.97 79.51C60.6567 81.05 61.5 83.36 61.5 86.44C61.5 89.8133 60.5467 92.5267 58.64 94.58C56.7333 96.56 54.13 97.55 50.83 97.55Z"
            fill="#1E1E2C" />
        <path d="M47 40L8 24V38.2857L36.2609 50.8571L8 68V84L47 59.4286V40Z" fill="#0277FA" />
    </g>
    <defs>
        <clipPath id="clip0_34_2">
            <rect width="100" height="100" fill="white" />
        </clipPath>
    </defs>
</svg>